<svg xmlns="http://www.w3.org/2000/svg" viewBox="0 0 96 96" role="img" aria-label="可爱的单板滑雪小人头像">
  <rect width="96" height="96" rx="48" fill="#071018"/>
  <path d="M20 67c16 9 38 10 56 1" fill="none" stroke="#f7fbff" stroke-width="6" stroke-linecap="round"/>
  <path d="M34 32c-3 6-4 14 1 20 5 7 16 8 22 1 6-6 5-17-1-23-6-6-17-4-22 2z" fill="#f7fbff"/>
  <path d="M33 35c6-9 20-10 29-1" fill="none" stroke="#19d3ff" stroke-width="5" stroke-linecap="round"/>
  <path d="M40 43h18" stroke="#071018" stroke-width="5" stroke-linecap="round"/>
  <path d="M38 57l10 9 15-10" fill="none" stroke="#63f5c4" stroke-width="6" stroke-linecap="round" stroke-linejoin="round"/>
  <path d="M24 72c16 7 34 7 51 0" fill="none" stroke="#19d3ff" stroke-width="4" stroke-linecap="round"/>
</svg>
